<?xml version="1.0" encoding="UTF-8" standalone="no"?>
<!DOCTYPE svg PUBLIC "-//W3C//DTD SVG 1.1//EN" "http://www.w3.org/Graphics/SVG/1.1/DTD/svg11.dtd">
<svg width="100%" height="100%" viewBox="0 0 231 221" version="1.1" xmlns="http://www.w3.org/2000/svg" xmlns:xlink="http://www.w3.org/1999/xlink" xml:space="preserve" xmlns:serif="http://www.serif.com/" style="fill-rule:evenodd;clip-rule:evenodd;stroke-linejoin:round;stroke-miterlimit:2;">
    <g transform="matrix(1,0,0,1,-203,-1681)">
        <g transform="matrix(1.57945,0,0,1.69585,-695.779,1473.18)">
            <g transform="matrix(1,0,0,1,0.393758,18.8107)">
                <g transform="matrix(0.63313,0,0,0.589674,440.268,0)">
                    <path d="M209.326,291.039L210.123,289.161C210.268,288.818 210.595,288.587 210.967,288.563C211.338,288.54 211.691,288.729 211.878,289.051C213.885,292.507 218.452,300.374 220.864,304.529C221.079,304.9 221.03,305.367 220.741,305.684C220.453,306.001 219.992,306.095 219.603,305.916L213.574,303.139C217.938,340.941 244.911,371.897 280.605,382.119L289.578,376.785C289.916,376.584 290.316,376.511 290.703,376.581L302.4,378.67C303.059,378.788 303.58,379.294 303.716,379.95C303.852,380.605 303.576,381.277 303.018,381.648L297.516,385.301C300.412,385.573 303.354,385.712 306.327,385.712C307.458,385.712 308.376,386.63 308.376,387.761C308.376,388.891 307.458,389.809 306.327,389.809C303.288,389.809 300.281,389.67 297.307,389.397L301.079,393.673C301.521,394.175 301.614,394.895 301.313,395.493C301.012,396.091 300.378,396.445 299.711,396.389L287.872,395.379C287.481,395.346 287.115,395.174 286.841,394.894L277.648,385.514C241.324,374.333 214.024,342.473 209.515,303.699L204.577,306.817C204.213,307.046 203.743,307.013 203.415,306.735C203.088,306.456 202.979,305.997 203.147,305.601L208.871,292.11C208.917,291.706 209.08,291.337 209.326,291.039ZM422.563,303.139L416.535,305.916C416.145,306.095 415.684,306.001 415.396,305.684C415.107,305.367 415.058,304.9 415.273,304.529C417.685,300.374 422.253,292.507 424.259,289.051C424.446,288.729 424.799,288.54 425.171,288.563C425.542,288.587 425.869,288.818 426.014,289.161L426.811,291.039C427.057,291.337 427.22,291.706 427.266,292.11L432.99,305.601C433.158,305.997 433.05,306.456 432.722,306.735C432.394,307.013 431.924,307.046 431.56,306.817L426.623,303.699C422.116,342.469 394.817,374.329 358.49,385.514L349.297,394.894C349.022,395.174 348.656,395.346 348.266,395.379L336.426,396.389C335.76,396.445 335.125,396.091 334.824,395.493C334.523,394.895 334.616,394.175 335.059,393.673L338.83,389.397C335.856,389.67 332.849,389.809 329.81,389.809C328.679,389.809 327.762,388.891 327.762,387.761C327.762,386.63 328.679,385.712 329.81,385.712C332.783,385.712 335.725,385.573 338.621,385.301L333.119,381.648C332.561,381.277 332.285,380.605 332.421,379.95C332.557,379.294 333.078,378.788 333.737,378.67L345.434,376.581C345.822,376.511 346.221,376.584 346.559,376.785L355.532,382.119C391.228,371.896 418.202,340.939 422.563,303.139ZM352.237,387.212C349.435,387.873 346.589,388.412 343.703,388.825L340.217,392.777L347.382,392.166L352.237,387.212ZM283.901,387.212L288.756,392.166L295.92,392.777L292.435,388.825C289.549,388.412 286.704,387.873 283.901,387.212ZM351.068,383.278L345.41,379.914L338.334,381.178L343.629,384.695C346.144,384.321 348.627,383.847 351.068,383.278ZM285.069,383.278C287.513,383.847 289.994,384.321 292.508,384.695L297.803,381.178L290.728,379.914L285.069,383.278ZM261.687,275.015C261.985,279.356 262.212,283.513 262.262,286.654C262.264,286.751 262.258,286.848 262.246,286.945C262.246,286.945 258.515,315.799 275.297,333.624C291.971,351.335 302.189,352.967 306.762,355.403C306.888,355.439 307.012,355.488 307.133,355.55C310.717,357.382 314.657,358.08 318.298,358.084C321.939,358.08 325.878,357.382 329.463,355.55C329.584,355.488 329.707,355.439 329.833,355.403C334.406,352.967 344.624,351.335 361.298,333.624C378.08,315.799 374.35,286.945 374.35,286.945L374.334,286.654C374.384,283.541 374.606,279.432 374.901,275.134L374.894,275.07C374.866,274.806 374.891,274.549 374.958,274.308C375.416,267.786 376.022,260.948 376.429,256.567C376.087,256.679 375.72,256.667 375.362,256.506C368.833,253.575 361.921,252.002 354.767,252.002C345.93,252.002 337.461,254.403 329.63,258.797C328.827,259.918 328.484,261.303 328.484,262.795C328.484,264.176 328.137,266.228 326.827,265.788C325.713,265.413 324.151,263.583 324.151,262.201C324.151,258.091 325.114,255.12 328.782,252.937C328.98,252.82 329.188,252.732 329.4,252.674C337.342,248.458 345.879,246.166 354.767,246.166C358.352,246.166 361.88,246.539 365.335,247.261C355.535,241.769 347.593,233.922 343.323,229.217C344.846,228.884 346.357,228.521 347.854,228.13C354.155,234.817 366.151,245.669 379.939,248.642C397.34,252.393 413.323,269.3 418.04,277.734C419.017,279.483 419.532,280.944 419.632,281.938C419.716,282.779 419.554,283.447 419.287,283.943C418.752,284.939 417.51,285.314 416.513,284.779C415.62,284.299 415.227,283.25 415.542,282.32C415.491,282.117 415.324,281.48 415.107,280.998C414.559,279.777 413.63,278.251 412.394,276.538C406.637,268.562 394.358,256.757 380.875,253.086C380.6,255.9 379.647,265.854 379.013,275.022C379.201,276.539 380.041,282.455 382.325,288.7C384.037,293.381 386.548,298.278 390.295,301.513C397.688,307.897 401.193,320.918 401.797,328.846C401.991,331.39 401.88,333.438 401.57,334.652C401.316,335.647 400.871,336.292 400.457,336.648C399.601,337.386 398.306,337.29 397.569,336.433C396.904,335.662 396.916,334.536 397.551,333.781C397.591,333.461 397.865,331.16 397.712,329.157C397.172,322.062 394.233,310.327 387.618,304.614C383.527,301.081 380.654,295.855 378.71,290.731C379.038,299.886 378.176,321.674 364.281,336.433C361.585,339.296 359.054,341.754 356.682,343.872C359.879,350.43 371.072,363.385 373.221,367.586C373.727,368.575 370.702,370.443 369.928,369.559C366.891,366.088 357.525,353.932 353.549,346.556C342.231,355.83 335.05,357.09 331.539,359.142C329.729,360.199 326.928,361.166 323.624,361.699C321.826,362.001 320.034,362.133 318.298,362.13C316.562,362.133 314.769,362.001 312.972,361.699C309.668,361.166 306.866,360.199 305.057,359.142C301.51,357.069 294.22,355.805 282.705,346.275C278.538,353.697 269.654,365.214 266.711,368.577C265.937,369.461 262.912,367.594 263.418,366.605C265.493,362.548 276,350.33 279.599,343.59C277.32,341.537 274.892,339.171 272.314,336.433C258.39,321.643 257.554,299.794 257.888,290.672C255.943,295.814 253.065,301.068 248.958,304.614C242.342,310.327 239.404,322.062 238.863,329.157C238.711,331.16 238.985,333.461 239.025,333.781C239.66,334.536 239.671,335.662 239.007,336.433C238.269,337.29 236.975,337.386 236.118,336.648C235.704,336.292 235.259,335.647 235.005,334.652C234.695,333.438 234.584,331.39 234.778,328.846C235.383,320.918 238.888,307.897 246.28,301.513C250.027,298.278 252.539,293.381 254.251,288.7C256.591,282.299 257.415,276.244 257.576,274.917C256.954,265.965 256.032,256.288 255.738,253.264C242.504,257.126 230.518,268.687 224.851,276.538C223.615,278.251 222.686,279.777 222.138,280.998C221.922,281.48 221.754,282.117 221.704,282.32C222.019,283.25 221.625,284.299 220.732,284.779C219.736,285.314 218.493,284.939 217.958,283.943C217.692,283.447 217.53,282.779 217.614,281.938C217.713,280.944 218.228,279.483 219.205,277.734C223.923,269.3 239.905,252.393 257.306,248.642C270.94,245.702 282.82,235.06 289.178,228.355C290.688,228.737 292.21,229.09 293.744,229.413C289.518,234.045 281.879,241.548 272.469,246.944C275.396,246.43 278.372,246.166 281.388,246.166C290.754,246.166 299.731,248.712 308.031,253.371C308.747,253.773 309.215,254.688 309.31,255.705C310.339,259.271 311.12,262.938 311.617,266.7C312.114,270.465 312.341,274.31 312.259,278.226C312.178,282.117 311.809,285.926 311.161,289.642C310.498,293.437 309.557,297.122 308.347,300.686C308.26,300.973 307.962,301.134 307.681,301.045C307.4,300.957 307.242,300.652 307.329,300.365C308.278,296.798 308.959,293.131 309.358,289.377C309.745,285.738 309.857,282.029 309.683,278.258C309.51,274.504 309.048,270.839 308.331,267.268C307.728,264.263 306.934,261.335 305.97,258.489C298.294,254.291 290.016,252.002 281.388,252.002C274.234,252.002 267.321,253.575 260.793,256.506C260.587,256.598 260.378,256.641 260.173,256.641C260.583,261.05 261.189,267.901 261.646,274.421C261.687,274.612 261.702,274.811 261.687,275.015ZM322.425,336.357C322.17,336.429 321.905,336.471 321.639,336.477L318.085,336.572L314.534,336.477C314.268,336.471 314.001,336.429 313.746,336.357L311.539,335.726L312.532,336.992C313.301,337.97 314.521,338.547 315.821,338.547L320.352,338.547C321.651,338.547 322.872,337.97 323.64,336.992L324.634,335.726L322.425,336.357ZM331.418,330.197C330.957,330.705 329.703,331.848 327.763,331.848L308.409,331.848C305.915,331.848 304.555,329.959 304.555,329.959C304.555,329.959 305.217,330.546 307.484,330.318C309.751,330.091 312.698,329.336 314.738,329.639C316.778,329.941 318.086,330.634 318.086,330.634C318.086,330.634 320.113,329.941 322.154,329.639C324.194,329.336 327.141,330.091 329.408,330.318C330.626,330.44 331.173,330.327 331.418,330.197C331.55,330.052 331.617,329.959 331.617,329.959C331.617,329.959 331.629,330.084 331.418,330.197ZM322.039,313.257C322.621,313.999 323.538,314.402 324.478,314.33C326.312,314.206 327.789,312.73 327.918,310.893C327.991,309.952 327.589,309.034 326.847,308.45C326.271,308.904 325.665,309.319 325.033,309.692C324.676,309.906 324.343,310.159 324.042,310.446C323.76,310.753 323.508,311.086 323.288,311.44C322.898,312.069 322.482,312.674 322.039,313.257ZM314.105,313.257C313.523,313.999 312.606,314.402 311.666,314.33C309.832,314.206 308.355,312.73 308.226,310.893C308.153,309.952 308.556,309.034 309.297,308.45C309.873,308.904 310.479,309.319 311.111,309.692C311.468,309.906 311.801,310.159 312.103,310.446C312.384,310.753 312.636,311.086 312.856,311.44C313.246,312.069 313.663,312.674 314.105,313.257ZM304.994,278.112C303.292,276.856 299.635,274.534 294.774,273.588C295.096,274.348 295.275,275.184 295.275,276.062C295.275,279.564 292.431,282.408 288.929,282.408C285.426,282.408 282.583,279.564 282.583,276.062C282.583,275.447 282.67,274.852 282.834,274.289C280.156,275.018 276.682,276.288 273.202,278.481C272.918,278.667 272.539,278.617 272.313,278.362C272.084,278.104 272.082,277.715 272.316,277.446C274.872,274.635 282.391,267.43 291.067,268.498C291.558,268.521 299.87,269.041 305.964,277.16C305.966,277.163 305.967,277.165 305.969,277.167C306.17,277.446 306.135,277.831 305.885,278.067C305.64,278.299 305.263,278.318 304.997,278.114L304.982,278.102L304.999,278.116L304.994,278.112ZM365.454,277.991C363.688,276.713 360.109,274.505 355.4,273.588C355.722,274.348 355.901,275.184 355.901,276.062C355.901,279.564 353.057,282.408 349.555,282.408C346.052,282.408 343.209,279.564 343.209,276.062C343.209,275.447 343.296,274.852 343.46,274.289C340.782,275.018 337.308,276.288 333.828,278.481C333.544,278.667 333.165,278.617 332.939,278.362C332.71,278.104 332.708,277.715 332.942,277.446C335.498,274.635 343.017,267.43 351.693,268.498C352.184,268.521 360.496,269.041 366.59,277.16C366.591,277.163 366.593,277.165 366.595,277.167C366.796,277.446 366.76,277.831 366.511,278.067C366.266,278.299 365.889,278.318 365.623,278.114L365.625,278.116L365.454,277.991ZM249.292,209.411C249.621,209.846 250.022,210.238 250.491,210.568C251.182,211.054 251.878,211.532 252.577,212.003C248.409,215.318 243.8,218.055 238.479,219.663C227.856,222.872 222.38,231.769 219.144,242.046C215.735,252.873 214.813,265.257 213.505,274.849C213.353,275.969 212.319,276.754 211.199,276.601C210.079,276.449 209.294,275.415 209.446,274.295C211.055,262.496 212.162,246.591 217.712,234.25C221.604,225.595 227.639,218.658 237.294,215.741C241.787,214.384 245.719,212.142 249.292,209.411ZM386.972,209.482C390.52,212.18 394.423,214.395 398.877,215.741C408.533,218.658 414.568,225.595 418.46,234.25C424.01,246.591 425.117,262.496 426.725,274.295C426.878,275.415 426.093,276.449 424.972,276.601C423.852,276.754 422.819,275.969 422.666,274.849C421.359,265.257 420.437,252.873 417.027,242.046C413.791,231.769 408.316,222.872 397.692,219.663C392.37,218.054 387.758,215.316 383.587,211.997C384.427,211.432 385.261,210.856 386.087,210.269C386.417,210.035 386.712,209.771 386.972,209.482ZM353.196,273.898C354.063,273.898 354.767,274.422 354.767,275.067C354.767,275.712 354.063,276.236 353.196,276.236C352.328,276.236 351.624,275.712 351.624,275.067C351.624,274.422 352.328,273.898 353.196,273.898ZM293.098,273.898C293.966,273.898 294.67,274.422 294.67,275.067C294.67,275.712 293.966,276.236 293.098,276.236C292.231,276.236 291.527,275.712 291.527,275.067C291.527,274.422 292.231,273.898 293.098,273.898ZM289.064,264.373C289.561,264.349 295.74,264.18 302.452,270.329C302.453,270.33 302.455,270.331 302.456,270.332C302.716,270.576 302.746,270.979 302.524,271.258C302.302,271.537 301.904,271.599 301.609,271.401C298.925,269.616 293.841,266.711 289.075,266.804C289.042,266.805 289.009,266.803 288.977,266.797C288.977,266.797 282.78,265.714 273.266,272.749L273.271,272.746C272.996,272.954 272.61,272.926 272.369,272.681C272.127,272.437 272.103,272.05 272.314,271.778L272.33,271.759C274.473,269.273 280.167,263.903 289.064,264.373ZM349.69,264.373C350.187,264.349 356.366,264.18 363.078,270.329C363.079,270.33 363.081,270.331 363.082,270.332C363.342,270.576 363.372,270.979 363.15,271.258C362.928,271.537 362.529,271.599 362.235,271.401C359.551,269.616 354.467,266.711 349.701,266.804C349.668,266.805 349.635,266.803 349.603,266.797C349.603,266.797 343.406,265.714 333.892,272.749L333.897,272.746C333.622,272.954 333.236,272.926 332.994,272.681C332.752,272.437 332.729,272.05 332.94,271.778L332.956,271.759C335.099,269.273 340.793,263.903 349.69,264.373ZM257.28,202.13C259.266,200.063 261.172,197.929 263.049,195.829C270.823,187.129 278.193,179.024 287.95,177.256C303.937,174.359 314.633,179.527 318.086,181.571C321.539,179.527 332.234,174.359 348.222,177.256C357.979,179.024 365.348,187.129 373.123,195.829C374.998,197.928 376.902,200.06 378.885,202.123C377.751,202.911 376.601,203.677 375.438,204.419C373.596,202.492 371.817,200.516 370.068,198.559C362.954,190.598 356.419,182.905 347.491,181.287C329.806,178.083 319.296,185.654 319.296,185.654C318.575,186.182 317.596,186.182 316.876,185.654C316.876,185.654 306.365,178.083 288.68,181.287C279.752,182.905 273.218,190.598 266.104,198.559C264.353,200.518 262.573,202.496 260.728,204.426C259.564,203.683 258.414,202.917 257.28,202.13Z" style="fill:white;"/>
                </g>
                <g transform="matrix(0.63313,0,0,0.589674,440.268,0)">
                    <path d="M308.715,237.189L308.834,237.289L309.321,237.676L309.953,238.132L310.476,238.471L310.611,238.553L311.154,238.865L311.709,239.153L311.996,239.29L312.575,239.544L313.551,239.906L314.839,240.265L315.706,240.436L316.515,240.546L317.835,240.629L318.545,240.624C317.052,242.724 318.773,245.85 318.773,245.85C323.783,255.104 317.581,256.974 315.79,257.312C315.714,257.322 315.639,257.286 315.6,257.22C315.561,257.154 315.565,257.071 315.61,257.01C318.368,252.914 312.067,248.126 312.067,248.126C307.374,243.161 307.723,239.385 308.715,237.189ZM331.38,231.908C331.566,235.476 336.316,235.573 336.316,235.573C346.835,235.861 345.353,242.168 344.751,243.888C344.721,243.959 344.653,244.005 344.576,244.006C344.499,244.007 344.43,243.962 344.399,243.892C342.23,239.456 334.934,242.519 334.934,242.519C327.851,244.204 324.799,241.606 323.53,239.572L324.679,239.045L325.611,238.523L326.186,238.154C327.22,237.455 328.159,236.625 328.98,235.69L329.776,234.699L330.405,233.767L330.965,232.781L331.38,231.908ZM304.989,232.341C302.498,232.222 300.719,235.162 300.719,235.162C295.21,244.128 290.49,239.691 289.301,238.31C289.255,238.249 289.249,238.166 289.286,238.099C289.324,238.032 289.397,237.994 289.474,238.003C294.399,238.343 295.395,230.492 295.395,230.492C297.636,222.984 301.838,222 304.172,222.091L304.038,222.587L303.84,223.49L303.727,224.201L303.634,225.106L303.598,226.025L303.621,226.98L303.703,227.896L303.84,228.795L304.053,229.758L304.302,230.614L304.601,231.448L304.952,232.262L304.989,232.341ZM318.086,215.751C323.821,215.751 328.477,220.407 328.477,226.142C328.477,231.878 323.821,236.534 318.086,236.534C312.351,236.534 307.694,231.878 307.694,226.142C307.694,220.407 312.351,215.751 318.086,215.751ZM330.855,219.295C333.174,219.162 334.799,216.476 334.799,216.476C340.308,207.51 345.028,211.947 346.217,213.328C346.264,213.389 346.27,213.472 346.232,213.539C346.195,213.605 346.121,213.643 346.045,213.635C341.119,213.295 340.123,221.145 340.123,221.145C338.128,227.832 334.577,229.344 332.175,229.531L332.329,228.808L332.432,228.178L332.507,227.541L332.56,226.795L332.569,225.769L332.509,224.761L332.395,223.861L332.318,223.418L332.228,222.98L332.124,222.548L332.008,222.122L331.879,221.701L331.739,221.286L331.586,220.876C331.413,220.435 331.22,220.004 331.007,219.585L330.855,219.295ZM342.07,221.784C356.57,218.556 369.999,212.464 381.727,204.132C382.684,203.453 384.012,203.678 384.691,204.634C385.37,205.59 385.145,206.918 384.189,207.598C371.196,216.827 356.196,223.411 339.976,226.562C340.762,225.308 341.481,223.742 342.07,221.784ZM294.852,226.296C279.312,223.084 264.919,216.714 252.377,207.887C251.418,207.212 251.188,205.886 251.863,204.926C252.538,203.967 253.865,203.736 254.824,204.411C267.416,213.273 281.946,219.563 297.648,222.515C296.665,223.412 295.701,224.632 294.852,226.296ZM305.871,218.352C304.822,215.967 301.211,215.894 301.211,215.894C290.692,215.606 292.174,209.299 292.776,207.579C292.806,207.508 292.874,207.462 292.951,207.461C293.028,207.46 293.097,207.505 293.128,207.575C295.297,212.011 302.593,208.948 302.593,208.948C310.024,207.18 313.017,210.126 314.171,212.19C313.82,212.289 313.473,212.4 313.134,212.524L312.584,212.737L311.448,213.263L311.089,213.455L310.02,214.108L309.759,214.288L308.703,215.106L307.706,216.039L306.819,217.037L306.62,217.288L305.955,218.221L305.871,218.352ZM319.131,211.691C320.353,209.601 318.754,206.695 318.754,206.695C313.744,197.441 319.946,195.571 321.737,195.233C321.813,195.223 321.888,195.259 321.927,195.325C321.966,195.391 321.962,195.474 321.917,195.536C319.159,199.631 325.46,204.419 325.46,204.419C330.678,209.94 329.663,213.991 328.461,216.034L327.824,215.418L327.083,214.789L326.236,214.165L325.344,213.603L324.336,213.07L323.207,212.586L321.999,212.19L320.876,211.923L319.8,211.755L319.131,211.691Z" style="fill:white;"/>
                </g>
            </g>
        </g>
    </g>
</svg>
