<?xml version="1.0" encoding="UTF-8" standalone="no"?>
<!DOCTYPE svg PUBLIC "-//W3C//DTD SVG 1.1//EN" "http://www.w3.org/Graphics/SVG/1.1/DTD/svg11.dtd">
<svg width="100%" height="100%" viewBox="0 0 251 221" version="1.1" xmlns="http://www.w3.org/2000/svg" xmlns:xlink="http://www.w3.org/1999/xlink" xml:space="preserve" xmlns:serif="http://www.serif.com/" style="fill-rule:evenodd;clip-rule:evenodd;stroke-linejoin:round;stroke-miterlimit:2;">
    <g transform="matrix(1,0,0,1,-2403,-1681)">
        <g transform="matrix(1.57945,0,0,1.69585,1513.99,1473.18)">
            <g transform="matrix(0.63313,0,0,0.589674,522.371,99.2095)">
                <g id="Layer_2">
                    <g>
                        <g transform="matrix(1.01833,0,0,1.01833,-2498.9,-133.72)">
                            <path d="M2642.56,231.368C2642.59,231.314 2642.62,231.261 2642.65,231.208C2644.34,228.255 2653.23,224.235 2653.23,224.235C2653.23,224.235 2654.22,233.992 2652.52,236.944L2652.34,237.263C2650.64,240.215 2641.76,244.235 2641.76,244.235C2641.76,244.235 2640.77,234.479 2642.46,231.526C2642.49,231.473 2642.53,231.42 2642.56,231.368ZM2626.6,237.102C2626.57,237.05 2626.54,236.998 2626.51,236.944C2624.82,233.992 2625.8,224.235 2625.8,224.235C2625.8,224.235 2634.69,228.255 2636.39,231.208L2636.57,231.526C2638.26,234.479 2637.28,244.235 2637.28,244.235C2637.28,244.235 2628.39,240.215 2626.69,237.263C2626.66,237.21 2626.63,237.156 2626.6,237.102ZM2634.08,216.235C2634.08,216.177 2634.08,216.119 2634.08,216.06C2634.08,212.813 2639.58,205.235 2639.58,205.235C2639.58,205.235 2645.08,212.813 2645.08,216.06L2645.08,216.411C2645.08,219.658 2639.58,227.235 2639.58,227.235C2639.58,227.235 2634.08,219.658 2634.08,216.411C2634.08,216.352 2634.08,216.294 2634.08,216.235Z" style="fill:white;"/>
                        </g>
                        <g transform="matrix(1.02165,0,0,1.02165,-2507.67,-134.284)">
                            <path d="M2577.52,253.004C2575.28,253.879 2544.96,266.082 2533.38,289.51C2533.31,289.656 2533.22,289.789 2533.13,289.91C2534.4,295.279 2535.88,302.998 2534.87,306.749C2533.58,311.547 2528.64,314.399 2523.85,313.113C2519.05,311.828 2516.2,306.889 2517.48,302.091C2518.51,298.278 2523.79,292.193 2527.6,288.182C2527.49,286.143 2527.43,284.088 2527.43,282.021C2527.43,220.161 2577.66,170.64 2639.52,170.64C2701.38,170.64 2751.6,220.161 2751.6,282.021C2751.6,284.082 2751.54,286.13 2751.43,288.164C2755.24,292.176 2760.54,298.272 2761.57,302.091C2762.85,306.889 2760,311.828 2755.2,313.113C2750.41,314.399 2745.47,311.547 2744.18,306.749C2743.18,303.003 2744.64,295.297 2745.92,289.927C2745.82,289.802 2745.72,289.663 2745.65,289.51C2734.04,266.026 2703.61,253.821 2701.5,252.998C2694.17,284.105 2708.97,315.589 2736.03,330.359C2737.03,330.91 2737.41,332.177 2736.86,333.186C2736.3,334.195 2735.04,334.567 2734.03,334.016C2718.3,325.429 2706.48,311.511 2700.3,295.256L2700.27,295.432C2699.93,297.331 2699.55,299.221 2699.11,301.1C2698.31,304.519 2697.34,307.898 2696.18,311.212C2694.99,314.599 2693.61,317.917 2692.02,321.136C2691.03,323.13 2689.97,325.085 2688.84,326.995L2688.76,327.112C2693.93,339.583 2703.05,350.136 2714.62,357.356C2715.6,357.965 2715.9,359.251 2715.29,360.227C2714.68,361.202 2713.39,361.5 2712.42,360.892C2700.92,353.72 2691.71,343.45 2686.07,331.324C2679.2,341.354 2671.04,348.448 2663.51,353.399C2663.51,353.427 2663.52,353.454 2663.53,353.482C2666.63,364.297 2672.01,374.172 2679.12,382.568C2679.86,383.442 2679.75,384.751 2678.87,385.489C2677.99,386.227 2676.68,386.115 2675.93,385.24C2668.68,376.677 2663.14,366.652 2659.84,355.68C2649.17,361.939 2640.53,363.874 2639.98,363.994L2639.59,364.044L2639.44,364.044C2639.31,364.039 2639.18,364.022 2639.05,363.994C2638.51,363.875 2629.88,361.942 2619.22,355.694C2615.92,366.66 2610.38,376.68 2603.13,385.24C2602.39,386.115 2601.07,386.227 2600.19,385.489C2599.31,384.751 2599.2,383.442 2599.94,382.568C2607.05,374.172 2612.43,364.297 2615.53,353.482C2615.54,353.46 2615.54,353.437 2615.55,353.415C2608,348.457 2599.83,341.351 2592.95,331.297C2587.3,343.435 2578.09,353.714 2566.58,360.892C2565.61,361.5 2564.32,361.202 2563.71,360.227C2563.1,359.251 2563.4,357.965 2564.38,357.356C2575.96,350.13 2585.09,339.563 2590.25,327.081C2585.12,318.502 2580.96,308.015 2578.73,295.225C2572.62,311.31 2560.99,325.107 2545.53,333.72C2545.34,333.821 2545.17,333.919 2544.99,334.016C2544.68,334.184 2544.35,334.266 2544.02,334.271L2543.99,334.271C2543.26,334.273 2542.54,333.88 2542.16,333.186C2541.93,332.764 2541.86,332.297 2541.93,331.856C2541.98,331.542 2542.11,331.242 2542.29,330.981L2542.33,330.933C2542.42,330.808 2542.53,330.692 2542.65,330.589L2543,330.353C2543.23,330.231 2543.45,330.107 2543.67,329.985L2544.28,329.64L2545.13,329.14L2546.09,328.563C2546.29,328.438 2546.49,328.313 2546.7,328.184L2547.12,327.917L2548.01,327.334C2548.11,327.271 2548.2,327.208 2548.3,327.143L2549.25,326.5C2549.78,326.132 2550.3,325.758 2550.82,325.375L2552.03,324.47L2552.61,324.015L2553.48,323.32L2553.94,322.944C2554.21,322.721 2554.48,322.496 2554.75,322.268C2555.31,321.792 2555.86,321.307 2556.4,320.814L2557.04,320.224C2571.2,307.04 2579.52,288.298 2579.38,268.531C2579.35,263.399 2578.74,258.196 2577.52,253.004ZM2696.77,255.192C2690.45,253.32 2683.79,252.319 2676.91,252.319C2667.95,252.319 2659.36,254.016 2651.41,257.124C2649.76,258.195 2648.12,260.618 2648.12,262.468C2648.12,263.618 2647.51,263.732 2647.11,263.732C2646.26,263.732 2645.75,262.158 2645.75,261.008C2645.75,257.588 2646.39,255.262 2649.44,253.445C2649.59,253.357 2649.74,253.289 2649.9,253.241C2658.32,249.95 2667.42,248.152 2676.91,248.152C2683.71,248.152 2690.31,249.075 2696.6,250.809C2658.18,232.508 2644.15,199.146 2639.52,183.47C2634.88,199.147 2620.85,232.515 2582.42,250.815C2588.72,249.077 2595.32,248.152 2602.13,248.152C2611.68,248.152 2620.83,249.97 2629.28,253.296C2629.82,253.506 2630.21,253.91 2630.43,254.396C2630.48,254.518 2630.52,254.646 2630.55,254.777C2631.62,258.382 2632.43,262.092 2632.95,265.898C2633.45,269.654 2633.68,273.489 2633.6,277.395C2633.51,281.277 2633.14,285.077 2632.48,288.784C2631.8,292.569 2630.84,296.246 2629.61,299.802C2629.52,300.088 2629.21,300.249 2628.93,300.16C2628.64,300.072 2628.48,299.767 2628.57,299.481C2629.54,295.923 2630.23,292.265 2630.64,288.52C2631.03,284.89 2631.15,281.19 2630.97,277.429C2630.8,273.684 2630.33,270.028 2629.6,266.466C2628.92,263.16 2628.01,259.949 2626.89,256.838C2619.15,253.912 2610.82,252.319 2602.13,252.319L2601.96,252.319C2597.9,252.329 2593.92,252.686 2590.04,253.366C2587.39,253.83 2584.79,254.444 2582.24,255.199C2583.42,261.359 2583.78,267.511 2583.41,273.539C2583.38,273.968 2583.35,274.396 2583.32,274.822L2583.26,275.529L2583.17,276.44L2583.09,277.253C2583.01,277.973 2582.91,278.69 2582.81,279.403C2582.8,279.497 2582.78,279.591 2582.77,279.682C2582.69,280.221 2582.61,280.759 2582.52,281.297C2582.26,282.785 2581.97,284.262 2581.63,285.727C2581.63,285.769 2581.64,285.812 2581.64,285.855C2587.31,345.481 2634.48,358.679 2639.52,359.921C2644.55,358.679 2691.72,345.481 2697.39,285.855C2697.39,285.827 2697.4,285.799 2697.4,285.771C2695.11,275.973 2694.79,265.591 2696.77,255.192ZM2649.52,334.484C2648.57,336.548 2647.04,338.144 2645.19,338.984C2643.38,339.872 2641.44,340.323 2639.49,340.311C2637.53,340.322 2635.58,339.851 2633.78,338.926C2631.93,338.069 2630.41,336.424 2629.52,334.311C2631.06,335.293 2632.74,335.96 2634.47,336.284C2636.13,336.63 2637.81,336.803 2639.5,336.803C2641.18,336.817 2642.86,336.663 2644.52,336.342C2646.26,336.051 2647.95,335.423 2649.52,334.484ZM2653.5,330C2653.4,328.71 2650.46,328.239 2647.99,327.09C2645.52,325.941 2643.93,325.8 2641.9,326.949C2641.25,327.382 2640.5,327.663 2639.72,327.768C2639.72,327.768 2639.58,327.804 2639.52,327.804C2639.45,327.804 2639.31,327.768 2639.31,327.768C2638.52,327.653 2637.78,327.373 2637.13,326.949C2635.1,325.8 2633.47,325.941 2631.03,327.09C2628.6,328.239 2625.63,328.71 2625.53,330C2625.43,331.29 2625.78,332.156 2628.92,332.109C2632.06,332.062 2634.53,331.007 2636.09,331.77C2636.8,332.26 2637.57,332.677 2638.39,333.013C2639.15,333.201 2639.95,333.201 2640.72,333.013C2641.53,332.674 2642.3,332.258 2643.03,331.77C2644.58,331.007 2647.09,332.062 2650.13,332.109C2653.18,332.156 2653.6,331.299 2653.5,330ZM2643.56,312.604C2644.15,313.36 2645.09,313.771 2646.04,313.697C2647.91,313.57 2649.42,312.067 2649.55,310.195C2649.62,309.235 2649.21,308.3 2648.46,307.705C2647.87,308.168 2647.25,308.591 2646.61,308.97C2646.24,309.189 2645.91,309.447 2645.6,309.739C2645.31,310.052 2645.05,310.391 2644.83,310.752C2644.43,311.393 2644.01,312.01 2643.56,312.604ZM2635.47,312.604C2634.88,313.36 2633.95,313.771 2632.99,313.697C2631.12,313.57 2629.61,312.067 2629.48,310.195C2629.41,309.235 2629.82,308.3 2630.57,307.705C2631.16,308.168 2631.78,308.591 2632.42,308.97C2632.79,309.189 2633.12,309.447 2633.43,309.739C2633.72,310.052 2633.98,310.391 2634.2,310.752C2634.6,311.393 2635.02,312.01 2635.47,312.604ZM2749.64,292.344C2749.32,293.775 2749,295.32 2748.73,296.874C2748.14,300.241 2747.66,303.647 2748.2,305.671C2748.9,308.248 2751.55,309.779 2754.12,309.089C2756.7,308.398 2758.23,305.746 2757.54,303.169C2757,301.145 2754.88,298.436 2752.69,295.812C2751.68,294.602 2750.63,293.423 2749.64,292.344ZM2529.41,292.344C2528.42,293.423 2527.37,294.602 2526.36,295.812C2524.17,298.436 2522.05,301.145 2521.51,303.169C2520.82,305.746 2522.35,308.398 2524.93,309.089C2527.5,309.779 2530.15,308.248 2530.85,305.671C2531.39,303.647 2530.91,300.241 2530.32,296.874C2530.05,295.32 2529.73,293.775 2529.41,292.344ZM2641.55,174.825C2641.56,174.884 2641.57,174.945 2641.58,175.005C2641.8,176.403 2650.28,226.853 2702.93,249.082C2704.39,249.653 2733.89,261.401 2747.41,284.052C2747.43,283.376 2747.43,282.699 2747.43,282.021C2747.43,223.139 2700.17,175.91 2641.55,174.825ZM2637.48,174.825C2578.86,175.91 2531.6,223.139 2531.6,282.021C2531.6,282.699 2531.61,283.376 2531.62,284.052C2545.15,261.401 2574.64,249.653 2576.11,249.082C2628.75,226.853 2637.23,176.403 2637.45,175.005C2637.46,174.944 2637.47,174.884 2637.48,174.825ZM2668.55,268.548C2678.92,268.226 2680.75,272.16 2679.45,274.143C2677.69,276.832 2675.08,278.88 2672.01,279.969C2691.94,280.629 2689.41,269.104 2689.41,269.104C2687.82,261.408 2678.48,262.007 2678.48,262.007C2686.15,266.628 2681.46,268.075 2681.46,268.075C2668.83,257.395 2653.99,270.784 2653.99,270.784C2657.89,269.843 2661.26,269.237 2664.13,268.893C2663.16,269.22 2662.31,269.705 2661.65,270.302C2662.1,270.076 2662.65,269.943 2663.24,269.943C2664.78,269.943 2666.03,270.853 2666.03,271.973C2666.03,273.093 2664.78,274.002 2663.24,274.002C2661.69,274.002 2660.44,273.093 2660.44,271.973C2660.44,271.96 2660.44,271.948 2660.44,271.935C2660.24,272.41 2660.12,272.915 2660.12,273.439C2660.12,276.204 2663.23,278.449 2667.05,278.449C2670.86,278.449 2673.96,276.204 2673.96,273.439C2673.96,271.048 2671.64,269.045 2668.55,268.548ZM2610.48,268.548C2600.11,268.226 2598.28,272.16 2599.58,274.143C2601.34,276.832 2603.96,278.88 2607.03,279.969C2587.09,280.629 2589.62,269.104 2589.62,269.104C2591.21,261.408 2600.55,262.007 2600.55,262.007C2592.88,266.628 2597.57,268.075 2597.57,268.075C2610.2,257.395 2625.04,270.784 2625.04,270.784C2621.14,269.843 2617.78,269.237 2614.9,268.893C2615.87,269.22 2616.72,269.705 2617.38,270.302C2616.93,270.076 2616.38,269.943 2615.8,269.943C2614.25,269.943 2613,270.853 2613,271.973C2613,273.093 2614.25,274.002 2615.8,274.002C2617.34,274.002 2618.59,273.093 2618.59,271.973C2618.59,271.96 2618.59,271.948 2618.59,271.935C2618.8,272.41 2618.91,272.915 2618.91,273.439C2618.91,276.204 2615.81,278.449 2611.99,278.449C2608.17,278.449 2605.07,276.204 2605.07,273.439C2605.07,271.048 2607.39,269.045 2610.48,268.548Z" style="fill:white;fill-rule:nonzero;"/>
                        </g>
                    </g>
                </g>
            </g>
        </g>
    </g>
</svg>
