<svg width="436" height="142" viewBox="0 0 436 142" fill="none" xmlns="http://www.w3.org/2000/svg">
<path fill-rule="evenodd" clip-rule="evenodd" d="M79.5425 40.1377C79.5615 40.1036 79.5804 40.0701 79.5993 40.0365C80.6682 38.1689 86.2908 35.6263 86.2908 35.6263C86.2908 35.6263 86.917 41.7973 85.8418 43.6644L85.728 43.8662C84.6528 45.7332 79.0365 48.2758 79.0365 48.2758C79.0365 48.2758 78.4103 42.1054 79.4792 40.2377C79.4982 40.2042 79.5235 40.1706 79.5425 40.1377ZM69.4484 43.7643C69.4294 43.7314 69.4104 43.6986 69.3914 43.6644C68.3226 41.7973 68.9424 35.6263 68.9424 35.6263C68.9424 35.6263 74.5649 38.1689 75.6401 40.0365L75.7541 40.2377C76.8229 42.1054 76.2031 48.2758 76.2031 48.2758C76.2031 48.2758 70.5804 45.7332 69.5052 43.8662C69.4863 43.8326 69.4674 43.7985 69.4484 43.7643ZM74.1792 30.5666C74.1792 30.5299 74.1792 30.4932 74.1792 30.4559C74.1792 28.4022 77.6578 23.6094 77.6578 23.6094C77.6578 23.6094 81.1363 28.4022 81.1363 30.4559V30.6779C81.1363 32.7315 77.6578 37.5237 77.6578 37.5237C77.6578 37.5237 74.1792 32.7315 74.1792 30.6779C74.1792 30.6406 74.1792 30.6039 74.1792 30.5666Z" fill="white"/>
<path d="M38.2915 53.9441C36.8701 54.4993 17.6311 62.2425 10.2832 77.1082C10.2388 77.2009 10.1817 77.2853 10.1246 77.362C10.9305 80.7688 11.8697 85.6668 11.2288 88.0469C10.4103 91.0914 7.27571 92.9011 4.23631 92.085C1.19056 91.2697 -0.61792 88.1357 0.194279 85.0913C0.847845 82.6718 4.19824 78.8107 6.6158 76.2656C6.546 74.9718 6.50782 73.6678 6.50782 72.3562C6.50782 33.1042 38.3803 1.68164 77.6324 1.68164C116.884 1.68164 148.751 33.1042 148.751 72.3562C148.751 73.664 148.712 74.9635 148.643 76.2542C151.06 78.7999 154.423 82.668 155.077 85.0913C155.889 88.1357 154.08 91.2697 151.035 92.085C147.995 92.9011 144.861 91.0914 144.042 88.0469C143.408 85.6699 144.334 80.7803 145.146 77.3728C145.083 77.2935 145.019 77.2053 144.975 77.1082C137.608 62.2069 118.299 54.4625 116.961 53.9403C112.309 73.6786 121.7 93.6561 138.871 103.028C139.505 103.378 139.747 104.182 139.398 104.822C139.042 105.462 138.243 105.698 137.602 105.349C127.621 99.8999 120.121 91.0685 116.199 80.7542L116.18 80.8659C115.964 82.0709 115.723 83.2702 115.444 84.4624C114.936 86.6319 114.321 88.776 113.585 90.8788C112.83 93.028 111.954 95.1333 110.945 97.1759C110.317 98.4411 109.644 99.6816 108.927 100.894L108.877 100.968C112.157 108.881 117.944 115.577 125.286 120.159C125.907 120.545 126.098 121.361 125.711 121.98C125.324 122.599 124.505 122.788 123.89 122.402C116.592 117.851 110.749 111.335 107.17 103.64C102.811 110.005 97.6327 114.506 92.8547 117.648C92.8547 117.665 92.8611 117.683 92.8674 117.7C94.8345 124.563 98.2483 130.829 102.76 136.156C103.229 136.711 103.16 137.542 102.601 138.01C102.043 138.478 101.211 138.407 100.736 137.852C96.1352 132.418 92.62 126.057 90.5261 119.095C83.7556 123.067 78.2732 124.294 77.9242 124.371L77.6768 124.402H77.5815C77.4991 124.399 77.4166 124.388 77.3341 124.371C76.9915 124.295 71.5154 123.069 64.7514 119.104C62.6574 126.062 59.1421 132.42 54.5417 137.852C54.0722 138.407 53.2346 138.478 52.6762 138.01C52.1178 137.542 52.048 136.711 52.5176 136.156C57.0291 130.829 60.4429 124.563 62.41 117.7C62.4163 117.686 62.4163 117.672 62.4227 117.658C57.632 114.512 52.4478 110.003 48.0822 103.623C44.4971 111.325 38.6532 117.848 31.3498 122.402C30.7343 122.788 29.9157 122.599 29.5286 121.98C29.1415 121.361 29.3318 120.545 29.9537 120.159C37.3015 115.573 43.0949 108.868 46.369 100.948C43.1139 95.5045 40.4742 88.8502 39.0592 80.7346C35.1823 90.941 27.8027 99.6956 17.9929 105.161C17.8723 105.225 17.7644 105.287 17.6502 105.349C17.4535 105.455 17.2441 105.507 17.0347 105.51H17.0157C16.5525 105.512 16.0956 105.262 15.8544 104.822C15.7085 104.554 15.6641 104.258 15.7085 103.978C15.7402 103.779 15.8228 103.588 15.937 103.423L15.9624 103.392C16.0195 103.313 16.0892 103.239 16.1653 103.174L16.3875 103.024C16.5334 102.947 16.673 102.868 16.8126 102.791L17.1997 102.572L17.739 102.255L18.3483 101.889C18.4752 101.809 18.602 101.73 18.7352 101.648L19.0018 101.479L19.5665 101.109C19.63 101.069 19.6871 101.029 19.7505 100.988L20.3533 100.579C20.6896 100.346 21.0196 100.109 21.3496 99.8657L22.1173 99.2914L22.4854 99.0027L23.0374 98.5617L23.3292 98.3231C23.5005 98.1816 23.6719 98.0388 23.8432 97.8942C24.1986 97.5921 24.5475 97.2844 24.8901 96.9716L25.2963 96.5972C34.2813 88.2315 39.5605 76.3392 39.4716 63.7964C39.4526 60.54 39.0656 57.2386 38.2915 53.9441ZM113.959 55.3324C109.949 54.1446 105.723 53.5094 101.357 53.5094C95.672 53.5094 90.2214 54.5862 85.1768 56.5583C84.1299 57.2379 83.0894 58.7754 83.0894 59.9493C83.0894 60.679 82.7023 60.7513 82.4485 60.7513C81.9091 60.7513 81.5855 59.7526 81.5855 59.0229C81.5855 56.8528 81.9915 55.3769 83.9268 54.2239C84.022 54.1681 84.1172 54.1249 84.2187 54.0945C89.5614 52.0062 95.3357 50.8653 101.357 50.8653C105.672 50.8653 109.86 51.451 113.851 52.5513C89.4727 40.9388 80.5702 19.7696 77.6324 9.82266C74.6881 19.7702 65.7856 40.9432 41.4006 52.5551C45.3982 51.4523 49.586 50.8653 53.9072 50.8653C59.9669 50.8653 65.773 52.0189 71.1348 54.1294C71.4774 54.2626 71.7248 54.519 71.8644 54.8273C71.8961 54.9048 71.9216 54.986 71.9406 55.0691C72.6196 57.3566 73.1335 59.7107 73.4634 62.1257C73.7807 64.509 73.9267 66.9424 73.876 69.4209C73.8189 71.8841 73.584 74.2954 73.1652 76.6476C72.7338 79.0493 72.1247 81.3824 71.3442 83.6388C71.2871 83.8203 71.0903 83.9224 70.9126 83.866C70.7286 83.8101 70.6272 83.6166 70.6843 83.4351C71.2998 81.1775 71.7375 78.8564 71.9976 76.48C72.2451 74.1767 72.3213 71.8289 72.2071 69.4425C72.0992 67.0661 71.8011 64.7463 71.3379 62.4861C70.9064 60.3884 70.3288 58.3509 69.6182 56.3769C64.7069 54.5202 59.4213 53.5094 53.9072 53.5094H53.7994C51.2232 53.5158 48.6978 53.7423 46.2358 54.1738C44.5543 54.4682 42.9045 54.8578 41.2864 55.3369C42.0352 59.2456 42.2636 63.1492 42.0288 66.9742C42.0098 67.2464 41.9908 67.5179 41.9718 67.7882L41.9337 68.2369L41.8765 68.8149L41.8259 69.3308C41.7751 69.7877 41.7116 70.2426 41.6482 70.695C41.6418 70.7547 41.6291 70.8143 41.6228 70.8721C41.572 71.2141 41.5212 71.5555 41.4641 71.8968C41.2992 72.841 41.1151 73.7782 40.8993 74.7078C40.8993 74.7344 40.9057 74.7617 40.9057 74.789C44.5035 112.624 74.4343 120.998 77.6324 121.786C80.824 120.998 110.755 112.624 114.353 74.789C114.353 74.7713 114.359 74.7535 114.359 74.7357C112.906 68.5186 112.703 61.9309 113.959 55.3324ZM83.9777 105.646C83.3749 106.955 82.404 107.968 81.2301 108.501C80.0816 109.064 78.8506 109.351 77.6133 109.343C76.3696 109.35 75.1323 109.051 73.9902 108.464C72.8163 107.92 71.8518 106.877 71.287 105.536C72.2642 106.159 73.3302 106.582 74.4279 106.788C75.4813 107.007 76.5473 107.117 77.6197 107.117C78.6857 107.126 79.7517 107.028 80.805 106.825C81.9091 106.64 82.9814 106.241 83.9777 105.646ZM86.5031 102.8C86.4396 101.982 84.5741 101.683 83.0068 100.954C81.4395 100.225 80.4306 100.135 79.1425 100.864C78.73 101.139 78.2542 101.317 77.7592 101.384C77.7592 101.384 77.6704 101.407 77.6324 101.407C77.5879 101.407 77.4991 101.384 77.4991 101.384C76.9978 101.311 76.5282 101.133 76.1157 100.864C74.8276 100.135 73.7934 100.225 72.2452 100.954C70.7033 101.683 68.8187 101.982 68.7553 102.8C68.6918 103.619 68.9138 104.168 70.9063 104.139C72.8987 104.109 74.4661 103.439 75.456 103.923C75.9065 104.234 76.3949 104.499 76.9153 104.712C77.3975 104.831 77.9052 104.831 78.3938 104.712C78.9077 104.497 79.3964 104.233 79.8596 103.923C80.8431 103.439 82.4357 104.109 84.3646 104.139C86.2999 104.168 86.5665 103.625 86.5031 102.8ZM80.1959 91.7621C80.5703 92.2418 81.1667 92.5026 81.7695 92.4556C82.9561 92.375 83.9142 91.4213 83.9967 90.2335C84.0411 89.6243 83.7809 89.031 83.305 88.6535C82.9306 88.9473 82.5373 89.2157 82.1312 89.4562C81.8965 89.5951 81.687 89.7589 81.4903 89.9441C81.3063 90.1428 81.1413 90.3579 81.0017 90.5869C80.7479 90.9937 80.4814 91.3852 80.1959 91.7621ZM75.0625 91.7621C74.6881 92.2418 74.098 92.5026 73.4889 92.4556C72.3023 92.375 71.3441 91.4213 71.2616 90.2335C71.2172 89.6243 71.4774 89.031 71.9533 88.6535C72.3277 88.9473 72.721 89.2157 73.1271 89.4562C73.3619 89.5951 73.5713 89.7589 73.768 89.9441C73.952 90.1428 74.117 90.3579 74.2566 90.5869C74.5104 90.9937 74.7769 91.3852 75.0625 91.7621ZM147.507 78.9065C147.304 79.8145 147.101 80.7948 146.929 81.7809C146.555 83.9174 146.25 86.0786 146.593 87.3629C147.037 88.998 148.719 89.9695 150.35 89.5317C151.987 89.0932 152.957 87.4105 152.52 85.7753C152.177 84.491 150.832 82.7721 149.442 81.107C148.801 80.3393 148.135 79.5911 147.507 78.9065ZM7.76418 78.9065C7.13599 79.5911 6.46986 80.3393 5.82899 81.107C4.43937 82.7721 3.0941 84.491 2.75145 85.7753C2.31363 87.4105 3.28441 89.0932 4.9215 89.5317C6.55224 89.9695 8.23385 88.998 8.67802 87.3629C9.02067 86.0786 8.71607 83.9174 8.3417 81.7809C8.17038 80.7948 7.96723 79.8145 7.76418 78.9065ZM78.9205 4.33715C78.9268 4.37458 78.9332 4.4133 78.9395 4.45137C79.0791 5.33844 84.4598 37.3505 117.868 51.4554C118.794 51.8178 137.513 59.2722 146.092 73.645C146.104 73.216 146.104 72.7864 146.104 72.3562C146.104 34.9938 116.117 5.02561 78.9205 4.33715ZM76.3379 4.33715C39.1417 5.02561 9.15392 34.9938 9.15392 72.3562C9.15392 72.7864 9.16028 73.216 9.16662 73.645C17.7518 59.2722 36.4641 51.8178 37.3969 51.4554C70.7985 37.3505 76.1792 5.33844 76.3188 4.45137C76.3252 4.41266 76.3315 4.37458 76.3379 4.33715ZM96.0528 63.8072C102.633 63.6029 103.794 66.0991 102.969 67.3574C101.852 69.0637 100.196 70.3632 98.2482 71.0542C110.894 71.473 109.289 64.16 109.289 64.16C108.28 59.2767 102.354 59.6567 102.354 59.6567C107.22 62.5889 104.245 63.5071 104.245 63.5071C96.2304 56.7303 86.814 65.226 86.814 65.226C89.2887 64.6289 91.427 64.2444 93.2481 64.0261C92.6326 64.2336 92.0932 64.5414 91.6744 64.9202C91.96 64.7768 92.309 64.6924 92.6834 64.6924C93.6606 64.6924 94.4538 65.2698 94.4538 65.9805C94.4538 66.6911 93.6606 67.2679 92.6834 67.2679C91.6999 67.2679 90.9067 66.6911 90.9067 65.9805C90.9067 65.9722 90.9067 65.9646 90.9067 65.9564C90.7798 66.2578 90.7037 66.5782 90.7037 66.9107C90.7037 68.6652 92.6771 70.0897 95.101 70.0897C97.5185 70.0897 99.4855 68.6652 99.4855 66.9107C99.4855 65.3935 98.0135 64.1226 96.0528 63.8072ZM59.2056 63.8072C52.6255 63.6029 51.4644 66.0991 52.2893 67.3574C53.406 69.0637 55.0685 70.3632 57.0165 71.0542C44.3639 71.473 45.9694 64.16 45.9694 64.16C46.9783 59.2767 52.9047 59.6567 52.9047 59.6567C48.0379 62.5889 51.0138 63.5071 51.0138 63.5071C59.028 56.7303 68.4444 65.226 68.4444 65.226C65.9697 64.6289 63.8376 64.2444 62.0101 64.0261C62.6256 64.2336 63.165 64.5414 63.5838 64.9202C63.2982 64.7768 62.9493 64.6924 62.5813 64.6924C61.5978 64.6924 60.8046 65.2698 60.8046 65.9805C60.8046 66.6911 61.5978 67.2679 62.5813 67.2679C63.5585 67.2679 64.3517 66.6911 64.3517 65.9805C64.3517 65.9722 64.3517 65.9646 64.3517 65.9564C64.4849 66.2578 64.5546 66.5782 64.5546 66.9107C64.5546 68.6652 62.5876 70.0897 60.1637 70.0897C57.7398 70.0897 55.7728 68.6652 55.7728 66.9107C55.7728 65.3935 57.2449 64.1226 59.2056 63.8072Z" fill="white"/>
<path d="M214.348 64.764C210.634 64.764 207.317 63.9317 204.386 62.2797C201.454 60.6152 199.169 58.3046 197.505 55.3483C195.84 52.3919 195.008 49.063 195.008 45.3489C195.008 41.5976 195.84 38.2313 197.505 35.275C199.169 32.331 201.454 30.033 204.386 28.3933C207.317 26.7537 210.634 25.9463 214.348 25.9463C217.429 25.9463 220.223 26.5425 222.733 27.7349C225.254 28.9274 227.292 30.6788 228.857 32.9768L226.149 34.952C224.782 33.0515 223.081 31.6229 221.056 30.6664C219.031 29.71 216.795 29.2381 214.348 29.2381C211.367 29.2381 208.696 29.9088 206.336 31.2504C203.964 32.5919 202.1 34.4924 200.759 36.927C199.417 39.3741 198.747 42.1814 198.747 45.3489C198.747 48.5289 199.417 51.3362 200.759 53.7708C202.1 56.2179 203.964 58.106 206.336 59.4599C208.696 60.8015 211.367 61.4722 214.348 61.4722C216.795 61.4722 219.031 60.9877 221.056 60.0437C223.081 59.0872 224.782 57.6588 226.149 55.7583L228.857 57.7333C227.292 60.0313 225.254 61.7703 222.733 62.9752C220.223 64.1677 217.429 64.764 214.348 64.764ZM419.652 64.764C416.584 64.764 413.653 64.3044 410.87 63.3728C408.088 62.4411 405.914 61.2734 404.349 59.8573L406.038 56.9258C407.591 58.2425 409.616 59.3481 412.075 60.2301C414.547 61.0996 417.118 61.5467 419.801 61.5467C423.665 61.5467 426.509 60.9008 428.335 59.6338C430.173 58.3668 431.092 56.603 431.092 54.3671C431.092 52.7522 430.583 51.4852 429.59 50.5535C428.583 49.6219 427.354 48.9387 425.888 48.5039C424.422 48.0692 422.398 47.5971 419.801 47.1127C416.783 46.5786 414.336 45.9824 412.485 45.3489C410.622 44.7154 409.032 43.6969 407.715 42.2808C406.399 40.8647 405.74 38.902 405.74 36.4177C405.74 33.3868 406.995 30.8901 409.516 28.9027C412.026 26.9276 415.603 25.9463 420.248 25.9463C422.683 25.9463 425.105 26.2816 427.49 26.9648C429.888 27.648 431.838 28.5548 433.353 29.6728L431.676 32.6043C430.111 31.4863 428.323 30.6292 426.323 30.0453C424.323 29.4615 422.273 29.1635 420.174 29.1635C416.609 29.1635 413.926 29.8218 412.112 31.1385C410.311 32.4552 409.404 34.1943 409.404 36.3432C409.404 38.0574 409.914 39.3865 410.945 40.3305C411.963 41.287 413.23 41.995 414.708 42.4546C416.199 42.9266 418.286 43.4236 420.981 43.9577C423.95 44.4918 426.36 45.0757 428.198 45.6843C430.024 46.293 431.577 47.2867 432.844 48.6531C434.111 50.0195 434.745 51.8951 434.745 54.2925C434.745 57.46 433.428 60.0064 430.794 61.9069C428.161 63.8075 424.447 64.764 419.652 64.764ZM286.791 46.2308H253.899C253.998 49.212 254.756 51.8579 256.172 54.1807C257.588 56.5036 259.501 58.2922 261.923 59.5592C264.333 60.8387 267.065 61.4722 270.084 61.4722C272.581 61.4722 274.891 61.0127 277.015 60.1183C279.139 59.2115 280.903 57.8823 282.319 56.1184L284.443 58.5407C282.779 60.5406 280.692 62.0808 278.183 63.1491C275.661 64.2298 272.941 64.764 270.009 64.764C266.208 64.764 262.805 63.9317 259.836 62.2797C256.855 60.6152 254.519 58.3171 252.843 55.3856C251.153 52.4541 250.309 49.1127 250.309 45.3489C250.309 41.6348 251.104 38.3058 252.694 35.3494C254.284 32.3931 256.457 30.0951 259.252 28.4306C262.035 26.7661 265.153 25.9463 268.618 25.9463C272.096 25.9463 275.201 26.7537 277.959 28.3933C280.717 30.033 282.89 32.3186 284.48 35.2501C286.07 38.1692 286.865 41.4982 286.865 45.2123L286.791 46.2308ZM385.269 46.2308H352.389C352.476 49.212 353.234 51.8579 354.65 54.1807C356.066 56.5036 357.992 58.2922 360.401 59.5592C362.824 60.8387 365.544 61.4722 368.575 61.4722C371.059 61.4722 373.369 61.0127 375.493 60.1183C377.618 59.2115 379.394 57.8823 380.81 56.1184L382.934 58.5407C381.269 60.5406 379.183 62.0808 376.674 63.1491C374.152 64.2298 371.432 64.764 368.5 64.764C364.687 64.764 361.296 63.9317 358.315 62.2797C355.333 60.6152 353.01 58.3171 351.321 55.3856C349.632 52.4541 348.799 49.1127 348.799 45.3489C348.799 41.6348 349.582 38.3058 351.172 35.3494C352.762 32.3931 354.948 30.0951 357.731 28.4306C360.513 26.7661 363.643 25.9463 367.109 25.9463C370.574 25.9463 373.692 26.7537 376.45 28.3933C379.207 30.033 381.381 32.3186 382.971 35.2501C384.549 38.1692 385.344 41.4982 385.344 45.2123L385.269 46.2308ZM315.137 34.5793C316.317 31.7968 318.143 29.6603 320.64 28.1697C323.124 26.6915 326.155 25.9463 329.72 25.9463V29.5237L328.838 29.4616C324.59 29.4616 321.273 30.7906 318.876 33.4489C316.479 36.1071 315.286 39.8088 315.286 44.5415V64.4783H311.622V26.232H315.137V34.5793ZM268.618 29.1635C265.935 29.1635 263.525 29.7596 261.376 30.9645C259.227 32.157 257.501 33.834 256.209 36.0078C254.917 38.1816 254.172 40.6412 253.973 43.3739H283.275C283.126 40.6412 282.394 38.1941 281.077 36.0451C279.76 33.8962 278.021 32.2192 275.872 31.0018C273.723 29.7721 271.314 29.1635 268.618 29.1635ZM367.109 29.1635C364.426 29.1635 362.004 29.7596 359.855 30.9645C357.706 32.157 355.992 33.834 354.687 36.0078C353.395 38.1816 352.65 40.6412 352.452 43.3739H381.754C381.617 40.6412 380.884 38.1941 379.555 36.0451C378.239 33.8962 376.512 32.2192 374.363 31.0018C372.214 29.7721 369.792 29.1635 367.109 29.1635Z" fill="white"/>
<path d="M207.669 100.67H200.505V98.5096H217.425V100.67H210.261V118.85H207.669V100.67ZM261.517 119.066C259.477 119.066 257.617 118.622 255.937 117.734C254.281 116.822 252.973 115.574 252.013 113.99C251.077 112.406 250.609 110.63 250.609 108.662C250.609 106.718 251.077 104.954 252.013 103.37C252.973 101.786 254.281 100.538 255.937 99.6256C257.617 98.7136 259.477 98.2576 261.517 98.2576C263.581 98.2576 265.441 98.7136 267.097 99.6256C268.753 100.514 270.049 101.762 270.985 103.37C271.945 104.954 272.425 106.718 272.425 108.662C272.425 110.63 271.945 112.406 270.985 113.99C270.049 115.574 268.753 116.822 267.097 117.734C265.441 118.622 263.581 119.066 261.517 119.066ZM261.517 116.834C263.077 116.834 264.493 116.486 265.765 115.79C267.037 115.07 268.033 114.098 268.753 112.874C269.473 111.626 269.833 110.234 269.833 108.698C269.833 107.138 269.473 105.746 268.753 104.522C268.033 103.274 267.037 102.302 265.765 101.606C264.493 100.886 263.077 100.526 261.517 100.526C259.957 100.526 258.541 100.886 257.269 101.606C255.997 102.302 255.001 103.274 254.281 104.522C253.561 105.746 253.201 107.138 253.201 108.698C253.201 110.234 253.561 111.626 254.281 112.874C255.001 114.098 255.997 115.07 257.269 115.79C258.541 116.486 259.957 116.834 261.517 116.834ZM318.474 119.066C316.434 119.066 314.574 118.622 312.894 117.734C311.238 116.822 309.93 115.574 308.97 113.99C308.034 112.406 307.566 110.63 307.566 108.662C307.566 106.718 308.034 104.954 308.97 103.37C309.93 101.786 311.238 100.538 312.894 99.6256C314.574 98.7136 316.434 98.2576 318.474 98.2576C320.538 98.2576 322.398 98.7136 324.054 99.6256C325.71 100.514 327.006 101.762 327.942 103.37C328.902 104.954 329.382 106.718 329.382 108.662C329.382 110.63 328.902 112.406 327.942 113.99C327.006 115.574 325.71 116.822 324.054 117.734C322.398 118.622 320.538 119.066 318.474 119.066ZM318.474 116.834C320.034 116.834 321.45 116.486 322.722 115.79C323.994 115.07 324.99 114.098 325.71 112.874C326.43 111.626 326.79 110.234 326.79 108.698C326.79 107.138 326.43 105.746 325.71 104.522C324.99 103.274 323.994 102.302 322.722 101.606C321.45 100.886 320.034 100.526 318.474 100.526C316.914 100.526 315.498 100.886 314.226 101.606C312.954 102.302 311.958 103.274 311.238 104.522C310.518 105.746 310.158 107.138 310.158 108.698C310.158 110.234 310.518 111.626 311.238 112.874C311.958 114.098 312.954 115.07 314.226 115.79C315.498 116.486 316.914 116.834 318.474 116.834ZM366.575 98.5096H369.167V116.69H380.507V118.85H366.575V98.5096ZM421.59 119.066C420.03 119.066 418.53 118.838 417.09 118.382C415.674 117.902 414.558 117.278 413.742 116.51L414.822 114.494C415.59 115.19 416.586 115.766 417.81 116.222C419.058 116.654 420.342 116.87 421.662 116.87C423.438 116.87 424.746 116.558 425.586 115.934C426.45 115.31 426.882 114.506 426.882 113.522C426.882 112.754 426.642 112.142 426.162 111.686C425.682 111.206 425.082 110.846 424.362 110.606C423.642 110.366 422.67 110.102 421.446 109.814C419.91 109.454 418.674 109.094 417.738 108.734C416.802 108.374 415.998 107.822 415.326 107.078C414.678 106.31 414.354 105.29 414.354 104.018C414.354 102.314 415.038 100.934 416.406 99.8776C417.774 98.7976 419.682 98.2576 422.13 98.2576C423.354 98.2576 424.542 98.4136 425.694 98.7256C426.87 99.0376 427.866 99.4816 428.682 100.058L427.746 102.146C426.186 101.042 424.29 100.49 422.058 100.49C420.354 100.49 419.07 100.814 418.206 101.462C417.342 102.086 416.91 102.902 416.91 103.91C416.91 104.678 417.15 105.302 417.63 105.782C418.11 106.238 418.71 106.586 419.43 106.826C420.174 107.066 421.17 107.33 422.418 107.618C423.93 107.978 425.154 108.338 426.09 108.698C427.026 109.034 427.818 109.574 428.466 110.318C429.138 111.062 429.474 112.058 429.474 113.306C429.474 115.034 428.778 116.426 427.386 117.482C426.018 118.538 424.086 119.066 421.59 119.066Z" fill="white"/>
</svg>
