<?xml version="1.0" encoding="UTF-8" standalone="no"?>
<!DOCTYPE svg PUBLIC "-//W3C//DTD SVG 1.1//EN" "http://www.w3.org/Graphics/SVG/1.1/DTD/svg11.dtd">
<svg width="100%" height="100%" viewBox="0 0 231 221" version="1.1" xmlns="http://www.w3.org/2000/svg" xmlns:xlink="http://www.w3.org/1999/xlink" xml:space="preserve" xmlns:serif="http://www.serif.com/" style="fill-rule:evenodd;clip-rule:evenodd;stroke-linejoin:round;stroke-miterlimit:2;">
    <g transform="matrix(1,0,0,1,-1676,-1681)">
        <g transform="matrix(1.57945,0,0,1.69585,777.4,1473.18)">
            <g transform="matrix(1,0,0,1,-1.62732,32.0225)">
                <g transform="matrix(0.647828,0,0,0.603363,-77.5288,-452.885)">
                    <path d="M1054.93,938.044C1043.38,928.737 1035.02,919.918 1035.02,919.918C1034.22,919.083 1034.26,917.764 1035.09,916.972C1035.93,916.181 1037.25,916.216 1038.04,917.05C1038.04,917.05 1047.49,927.009 1060.1,936.818C1060.14,936.815 1060.18,936.814 1060.23,936.813C1071.13,936.79 1082.02,932.326 1082.02,932.326C1083.08,931.89 1084.3,932.401 1084.73,933.465C1085.17,934.529 1084.66,935.746 1083.6,936.182C1083.6,936.182 1075.06,939.672 1065.28,940.699C1065.56,940.902 1065.85,941.104 1066.13,941.305C1076.25,948.479 1087.61,954.742 1097.47,955.43C1103.62,955.858 1111.01,956.208 1119.06,955.976C1105.16,952.045 1094.67,946.175 1094.67,946.175C1093.67,945.614 1093.31,944.343 1093.88,943.34C1094.44,942.337 1095.71,941.978 1096.71,942.54C1096.71,942.54 1104.69,947.007 1115.85,950.652C1111.05,946.895 1107.93,943.528 1107.93,943.528C1107.14,942.685 1107.19,941.365 1108.04,940.584C1108.88,939.802 1110.2,939.852 1110.98,940.696C1110.98,940.696 1118.98,949.329 1128.85,953.942C1128.92,953.973 1128.98,954.007 1129.05,954.044C1130.66,954.339 1132.3,954.591 1133.94,954.789C1134.01,954.798 1134.08,954.809 1134.15,954.824C1149.39,952.866 1165.6,948.157 1179.54,937.937C1162.08,944.522 1145.78,946.118 1145.78,946.118C1144.64,946.23 1143.62,945.392 1143.51,944.248C1143.39,943.103 1144.23,942.083 1145.38,941.971C1145.38,941.971 1169.4,939.623 1189.91,928.74C1189.94,928.722 1189.98,928.705 1190.01,928.689C1191.66,926.934 1193.26,925.071 1194.8,923.094C1195.51,922.186 1196.82,922.022 1197.73,922.728C1198.63,923.434 1198.8,924.744 1198.09,925.652C1187.76,938.938 1174.78,947.286 1161.21,952.437C1173.45,951.908 1182.24,949.431 1182.24,949.431C1183.34,949.119 1184.5,949.764 1184.81,950.87C1185.12,951.977 1184.48,953.129 1183.37,953.441C1183.37,953.441 1169.9,957.254 1152.88,956.633C1148.16,960.454 1143.13,963.678 1138.43,966.309C1138,966.551 1136.63,967.377 1136.29,967.48C1126.78,972.564 1119.13,975.093 1119.13,975.093C1118.04,975.454 1116.86,974.86 1116.5,973.769C1116.14,972.677 1116.74,971.498 1117.83,971.137C1117.83,971.137 1117.97,971.09 1118.23,970.997C1110.58,971.764 1105.34,971.435 1105.34,971.435C1104.19,971.364 1103.32,970.374 1103.39,969.227C1103.46,968.079 1104.45,967.205 1105.6,967.277C1105.6,967.277 1119.44,968.13 1134.74,963.595C1138.14,961.759 1141.78,959.586 1145.36,957.075C1128.12,960.779 1111.21,960.496 1098.74,959.691C1098.45,959.952 1098.29,960.156 1098,960.339C1089.04,965.975 1070.18,968.615 1070.18,968.615C1069.04,968.722 1068.02,967.879 1067.91,966.734C1067.81,965.589 1068.65,964.573 1069.8,964.466C1069.8,964.466 1076.66,963.826 1085.06,961.166C1074.36,961.571 1065.73,959.725 1065.73,959.725C1064.6,959.485 1063.88,958.377 1064.12,957.252C1064.37,956.128 1065.47,955.41 1066.6,955.65C1066.6,955.65 1075.3,957.509 1085.86,956.965C1078.45,954.237 1070.79,949.715 1063.72,944.705C1063.28,944.392 1062.84,944.078 1062.4,943.763C1061.99,943.792 1061.44,943.814 1061.09,943.769C1051.07,942.5 1034.28,933.475 1034.28,933.475C1033.31,932.863 1033.01,931.576 1033.62,930.602C1034.24,929.629 1035.53,929.336 1036.5,929.948C1036.5,929.948 1044.43,934.936 1054.93,938.044Z" style="fill:white;"/>
                </g>
                <g transform="matrix(0.647828,0,0,0.603363,-560.29,-8.45448)">
                    <path d="M1910.66,241.7C1903.88,236.86 1897.27,233.108 1890.87,230.27C1892.23,229.414 1893.6,228.512 1894.97,227.565C1904.15,231.918 1913.71,238.09 1923.55,246.547C1924.21,247.113 1924.43,248.005 1924.17,248.783C1924.34,249.286 1924.31,249.852 1924.06,250.363C1920.8,256.928 1917.92,264.662 1918.7,271.99C1919.23,276.973 1920.82,281.495 1922.07,286.086C1923.42,291.051 1924.4,296.09 1923.57,301.758C1922.49,309.093 1919.15,315.319 1915.47,321.399C1912.01,327.114 1908.25,332.695 1906.1,339.1C1901.89,351.601 1905.29,364.541 1906.63,377.213C1906.75,378.356 1905.92,379.383 1904.78,379.504C1903.63,379.626 1902.61,378.796 1902.49,377.653C1901.08,364.394 1897.75,350.853 1902.14,337.773C1904.39,331.076 1908.29,325.217 1911.9,319.242C1915.3,313.633 1918.45,307.92 1919.44,301.153C1919.94,297.779 1919.69,294.658 1919.11,291.638C1913.86,313.775 1896.24,338.87 1867.58,354.027C1864.38,355.714 1864.89,355.588 1860.77,356.243L1859.46,356.243C1855.98,356.237 1852.54,355.48 1849.4,354.027C1820.07,340.447 1802.3,314.401 1796.94,292.035C1796.41,294.931 1796.21,297.927 1796.68,301.153C1797.67,307.92 1800.82,313.633 1804.22,319.242C1807.83,325.217 1811.73,331.076 1813.98,337.773C1818.37,350.853 1815.04,364.394 1813.64,377.653C1813.51,378.796 1812.49,379.626 1811.34,379.504C1810.2,379.383 1809.37,378.356 1809.49,377.213C1810.84,364.541 1814.23,351.601 1810.03,339.1C1807.88,332.695 1804.11,327.114 1800.65,321.399C1796.97,315.319 1793.63,309.093 1792.56,301.758C1791.73,296.09 1792.7,291.051 1794.05,286.086C1795.3,281.495 1796.89,276.973 1797.42,271.99C1798.2,264.662 1795.32,256.928 1792.06,250.363C1791.81,249.852 1791.79,249.285 1791.95,248.782C1791.72,248.088 1791.87,247.293 1792.4,246.717C1792.4,246.717 1798.67,239.884 1809.71,232.961C1810.43,234.267 1811.6,235.276 1812.99,235.801C1808.64,238.453 1805.02,241.124 1802.22,243.397C1832.94,235.45 1847.09,245.349 1849.06,246.865L1849.28,247.038C1849.69,247.403 1850,247.931 1850.11,248.438C1850.34,249.798 1855.56,281.928 1851.7,291.958C1851.41,292.729 1850.66,293.24 1849.83,293.238C1849.83,293.238 1849.83,293.238 1849.83,293.238C1851.5,290.989 1851.19,281.902 1851.19,278.642C1851.2,272.857 1847.82,258.815 1846.29,249.781C1843.64,247.949 1828.29,238.907 1796.2,249.328C1799.62,256.398 1802.39,264.638 1801.57,272.43C1801.2,275.912 1800.35,279.183 1799.43,282.403C1801.39,305.316 1819.08,335.696 1851.16,350.528C1853.76,351.726 1856.6,352.35 1859.48,352.355L1860.13,352.355L1860.13,352.356L1860.77,352.346C1863.93,351.643 1863.22,351.727 1865.81,350.528C1897.96,335.656 1914.65,305.194 1916.56,282.265L1916.65,282.272C1915.75,279.094 1914.92,275.865 1914.56,272.43C1913.74,264.757 1916.42,256.65 1919.77,249.653C1919.51,249.616 1919.26,249.533 1919.03,249.408C1896.36,237.098 1877.54,250.228 1874.73,252.408C1873.67,255.011 1873.27,257.82 1873.59,260.598C1873.59,260.668 1873.6,260.738 1873.6,260.809C1873.6,261.827 1872.78,262.692 1871.71,262.798L1871.49,262.738C1870.42,262.744 1869.5,261.965 1869.39,260.948C1868.99,257.34 1869.56,253.694 1871.03,250.348L1871.24,249.948L1871.61,249.648C1871.8,249.492 1888.56,235.758 1910.66,241.7ZM1946.32,264.023C1945.75,262.251 1945.3,260.42 1945.02,258.512C1944.18,252.97 1945.15,248.044 1946.51,243.19C1947.76,238.719 1949.35,234.314 1949.88,229.462C1950.65,222.407 1948.27,214.807 1944.64,208.626C1944.27,208.127 1942.05,205.185 1937.99,201.108C1938.99,200.16 1939.97,199.181 1940.94,198.168C1945.68,202.939 1948.08,206.263 1948.08,206.263L1948.18,206.424C1950.19,209.84 1951.85,213.65 1952.91,217.587C1953.01,217.684 1953.09,217.793 1953.17,217.912C1964.94,235.789 1970.82,257.186 1970.82,280.171C1970.82,281.321 1969.89,282.254 1968.74,282.254C1967.59,282.254 1966.65,281.321 1966.65,280.171C1966.65,261.136 1962.75,243.231 1954.18,227.64C1954.15,228.402 1954.1,229.16 1954.02,229.912C1953.47,234.999 1951.84,239.625 1950.53,244.312C1949.32,248.617 1948.4,252.978 1949.14,257.893C1950.13,264.478 1953.27,270.038 1956.66,275.498C1960.28,281.328 1964.18,287.046 1966.43,293.581C1970.83,306.349 1967.5,319.566 1966.09,332.508C1965.97,333.651 1964.94,334.478 1963.8,334.354C1962.65,334.229 1961.83,333.2 1961.95,332.057C1963.29,319.716 1966.68,307.114 1962.49,294.939C1960.34,288.699 1956.58,283.262 1953.12,277.695C1951.3,274.756 1949.56,271.781 1948.13,268.657C1938.91,282.171 1937.43,295.893 1938.03,310.03C1938.68,325.637 1941.83,341.748 1940.52,358.648C1940.43,359.795 1939.43,360.653 1938.29,360.565C1937.14,360.476 1936.28,359.473 1936.37,358.327C1937.66,341.599 1934.52,325.654 1933.86,310.206C1933.19,294.4 1935.08,279.111 1946.32,264.023ZM1769,268.48C1767.56,271.668 1765.79,274.7 1763.93,277.695C1760.47,283.262 1756.71,288.699 1754.56,294.939C1750.37,307.114 1753.76,319.716 1755.1,332.057C1755.23,333.2 1754.4,334.229 1753.26,334.354C1752.11,334.478 1751.08,333.651 1750.96,332.508C1749.55,319.566 1746.22,306.349 1750.62,293.581C1752.87,287.046 1756.77,281.328 1760.39,275.498C1763.78,270.038 1766.92,264.478 1767.91,257.893C1768.65,252.978 1767.73,248.617 1766.53,244.312C1765.22,239.625 1763.58,234.999 1763.03,229.912C1762.94,229.08 1762.88,228.243 1762.86,227.402C1754.2,243.048 1750.25,261.038 1750.25,280.171C1750.25,281.321 1749.32,282.254 1748.17,282.254C1747.02,282.254 1746.09,281.321 1746.09,280.171C1746.09,257.186 1751.96,235.789 1763.73,217.912C1763.83,217.768 1763.94,217.639 1764.06,217.527C1765.09,213.626 1766.75,209.836 1768.89,206.381C1768.92,206.344 1768.94,206.308 1768.97,206.273C1768.97,206.273 1771.15,203.208 1775.49,198.738C1775.95,199.389 1776.55,199.962 1777.26,200.413C1777.34,200.463 1777.42,200.511 1777.51,200.556C1777.51,200.556 1777.99,200.815 1778.85,201.252C1774.85,205.33 1772.69,208.238 1772.39,208.644C1768.51,214.916 1766.4,222.413 1767.17,229.462C1767.7,234.314 1769.29,238.719 1770.54,243.19C1771.9,248.044 1772.87,252.97 1772.04,258.512C1771.76,260.352 1771.33,262.121 1770.79,263.834C1782.16,278.981 1784.06,294.333 1783.39,310.206C1782.74,325.654 1779.59,341.599 1780.88,358.327C1780.97,359.473 1780.11,360.476 1778.97,360.565C1777.82,360.653 1776.82,359.795 1776.73,358.648C1775.42,341.748 1778.57,325.637 1779.23,310.03C1779.83,295.831 1778.32,282.051 1769,268.48ZM1869.68,327.593C1868.71,329.381 1867.13,330.765 1865.23,331.493C1863.37,332.262 1861.38,332.653 1859.36,332.643C1857.35,332.653 1855.35,332.244 1853.49,331.443C1851.59,330.7 1850.02,329.274 1849.1,327.443C1850.7,328.294 1852.42,328.872 1854.2,329.153C1855.91,329.453 1857.64,329.603 1859.37,329.603C1861.11,329.615 1862.84,329.481 1864.54,329.203C1866.33,328.951 1868.07,328.407 1869.68,327.593ZM1873.19,322.753C1873.09,321.383 1870.19,320.883 1867.76,319.663C1865.33,318.443 1863.76,318.293 1861.76,319.513C1861.13,319.973 1860.39,320.272 1859.61,320.383L1859.55,320.323C1859.51,320.333 1859.46,320.333 1859.41,320.323C1859.37,320.333 1859.33,320.333 1859.28,320.323L1859.21,320.383C1858.44,320.261 1857.7,319.964 1857.06,319.513C1855.06,318.293 1853.46,318.443 1851.06,319.663C1848.66,320.883 1845.74,321.383 1845.64,322.753C1845.54,324.123 1845.89,325.043 1848.98,324.993C1852.07,324.943 1854.5,323.823 1856.04,324.633C1856.75,325.153 1857.51,325.596 1858.3,325.953C1859.06,326.153 1859.85,326.153 1860.6,325.953C1861.4,325.594 1862.16,325.151 1862.87,324.633C1864.4,323.823 1866.87,324.943 1869.87,324.993C1872.87,325.043 1873.29,324.133 1873.19,322.753ZM1865.46,305.313C1865.91,304.735 1866.33,304.13 1866.71,303.503C1866.93,303.143 1867.18,302.808 1867.47,302.503C1867.78,302.211 1868.11,301.956 1868.47,301.743C1869.1,301.362 1869.71,300.945 1870.29,300.493C1871.05,301.074 1871.46,302.003 1871.37,302.953C1871.32,303.853 1870.94,304.702 1870.29,305.333C1869.65,305.97 1868.81,306.354 1867.9,306.413C1866.96,306.48 1866.04,306.066 1865.46,305.313ZM1855.09,305.313C1854.51,306.061 1853.58,306.466 1852.63,306.393C1850.78,306.268 1849.29,304.783 1849.16,302.933C1849.09,301.985 1849.5,301.061 1850.24,300.473C1850.83,300.931 1851.44,301.348 1852.07,301.723C1852.43,301.939 1852.77,302.194 1853.07,302.483C1853.36,302.792 1853.61,303.127 1853.83,303.483C1854.23,304.116 1854.65,304.726 1855.09,305.313ZM1824.08,263.087L1824,263.106C1819.01,264.447 1812.9,264.322 1808.87,260.604C1808.78,260.521 1808.04,259.374 1808.18,259.414C1809.66,259.835 1810.64,260.147 1812.18,259.963C1815.55,259.563 1818.71,258.267 1822,257.518C1825.52,256.712 1828.95,256.923 1832.44,257.798C1836.73,258.87 1840.66,261.118 1844.03,263.945C1841.29,263.41 1838.34,262.861 1835.35,262.55C1835.92,263.531 1836.26,264.679 1836.26,265.907C1836.26,269.517 1833.39,272.443 1829.85,272.443C1826.32,272.443 1823.45,269.517 1823.45,265.907C1823.45,264.897 1823.68,263.941 1824.08,263.087ZM1886.68,262.55C1883.69,262.861 1880.74,263.41 1878,263.945C1881.37,261.118 1885.3,258.87 1889.59,257.798C1893.08,256.923 1896.5,256.712 1900.03,257.518C1903.32,258.267 1906.48,259.563 1909.85,259.963C1911.39,260.147 1912.37,259.835 1913.85,259.414C1913.99,259.374 1913.25,260.521 1913.16,260.604C1909.12,264.322 1903.02,264.447 1898.03,263.106L1897.95,263.087C1898.35,263.941 1898.58,264.897 1898.58,265.907C1898.58,269.517 1895.71,272.443 1892.17,272.443C1888.64,272.443 1885.77,269.517 1885.77,265.907C1885.77,264.679 1886.11,263.531 1886.68,262.55ZM1894.86,263.079C1896.4,262.931 1897.75,263.743 1897.86,264.891C1897.97,266.039 1896.8,267.092 1895.26,267.24C1893.71,267.387 1892.37,266.575 1892.26,265.427C1892.15,264.279 1893.32,263.226 1894.86,263.079ZM1832.54,263.079C1834.08,262.931 1835.42,263.743 1835.53,264.891C1835.64,266.039 1834.48,267.092 1832.94,267.24C1831.39,267.387 1830.05,266.575 1829.94,265.427C1829.83,264.279 1830.99,263.226 1832.54,263.079ZM1796.06,248.918L1796.02,248.961L1796.19,249.322L1796.06,248.918ZM1853.08,168.742C1828.51,169.582 1809.48,178.086 1796.08,187.034C1794.95,186.012 1793.89,185.04 1792.93,184.135C1807.85,173.974 1829.7,164.209 1858.35,164.515C1892.04,164.157 1916.43,177.713 1931.2,189.471C1929.81,190.17 1928.39,190.829 1926.98,191.451C1913.45,181.089 1892.24,169.718 1863.62,168.742C1863.4,168.804 1863.17,168.832 1862.94,168.82C1861.39,168.744 1859.86,168.698 1858.35,168.682C1856.84,168.698 1855.31,168.744 1853.75,168.82C1853.52,168.832 1853.29,168.804 1853.08,168.742Z" style="fill:white;"/>
                </g>
            </g>
        </g>
    </g>
</svg>
