<?xml version="1.0" encoding="UTF-8" standalone="no"?>
<!DOCTYPE svg PUBLIC "-//W3C//DTD SVG 1.1//EN" "http://www.w3.org/Graphics/SVG/1.1/DTD/svg11.dtd">
<svg width="100%" height="100%" viewBox="0 0 181 221" version="1.1" xmlns="http://www.w3.org/2000/svg" xmlns:xlink="http://www.w3.org/1999/xlink" xml:space="preserve" xmlns:serif="http://www.serif.com/" style="fill-rule:evenodd;clip-rule:evenodd;stroke-linejoin:round;stroke-miterlimit:2;">
    <g transform="matrix(1,0,0,1,-964,-1681)">
        <g transform="matrix(1.57945,0,0,1.69585,40.8101,1473.18)">
            <g transform="matrix(1,0,0,1,-3.93149,37.4238)">
                <g transform="matrix(0.63313,0,0,0.589674,-27.358,0)">
                    <path d="M1109.66,204.312C1107.26,201.02 1105.75,197.685 1105.75,197.685C1105.68,197.551 1105.61,197.43 1105.52,197.323C1105.42,195.923 1105.26,189.548 1109.73,181.987C1114.87,173.284 1126.04,163.168 1149.9,156.867C1150.24,159.309 1150.43,164.55 1147.4,170.475C1144.52,176.123 1138.74,182.327 1127.6,187.457C1126.84,187.811 1126.5,188.723 1126.85,189.492C1127.21,190.26 1128.12,190.597 1128.89,190.242C1137.13,186.444 1142.61,182.058 1146.25,177.711L1153.48,175.07C1153.57,178.057 1153.21,184.019 1149.58,189.086C1149.38,189.243 1149.24,189.444 1149.14,189.668C1146.98,192.434 1143.79,194.88 1139.08,196.347C1138.27,196.599 1137.82,197.459 1138.07,198.267C1138.32,199.076 1139.18,199.527 1139.99,199.276C1145.43,197.582 1149.11,194.753 1151.58,191.559L1153.09,191.097C1152.36,194.249 1150.32,200.027 1144.79,204.483C1139.55,208.708 1131.23,211.687 1118.08,210.375L1116.8,210.236C1115.35,209.931 1113.98,209.015 1112.73,207.846L1109.66,204.312ZM1014.25,207.846C1013,209.015 1011.64,209.931 1010.19,210.236C1009.86,210.275 1009.53,210.312 1009.2,210.345L1008.91,210.375C995.764,211.687 987.442,208.708 982.201,204.483C976.673,200.027 974.63,194.249 973.895,191.097L975.408,191.559C977.883,194.753 981.561,197.582 986.999,199.276C987.807,199.527 988.667,199.076 988.919,198.267C989.171,197.459 988.719,196.599 987.911,196.347C983.199,194.88 980.005,192.434 977.849,189.668C977.753,189.444 977.605,189.243 977.414,189.086C973.779,184.019 973.417,178.057 973.506,175.07L980.743,177.711C984.375,182.058 989.859,186.444 998.102,190.242C998.871,190.597 999.782,190.26 1000.14,189.492C1000.49,188.723 1000.15,187.811 999.386,187.457C988.254,182.327 982.472,176.123 979.584,170.475C976.555,164.55 976.752,159.309 977.092,156.867C1000.95,163.168 1012.12,173.284 1017.26,181.987C1021.73,189.548 1021.57,195.923 1021.47,197.323C1021.38,197.43 1021.3,197.551 1021.24,197.685C1021.24,197.685 1019.73,201.02 1017.32,204.312L1014.25,207.846Z" style="fill:white;"/>
                </g>
                <g transform="matrix(0.63313,0,0,0.589674,-31.2895,0)">
                    <path d="M1095.78,287.704L1095.78,359.007L1138.75,330.355C1149.27,323.483 1155.62,311.766 1155.62,299.2L1155.62,204.364C1157.35,202.506 1158.67,200.555 1159.67,198.691C1159.69,198.816 1159.7,198.943 1159.7,199.071C1159.7,199.071 1159.7,264.398 1159.7,299.2C1159.7,313.146 1152.66,326.151 1140.99,333.778C1121.8,346.312 1094.85,364.497 1094.85,364.497C1094.22,364.907 1093.42,364.94 1092.76,364.583C1092.1,364.226 1091.69,363.535 1091.69,362.785L1091.69,340.782C1081.34,347.637 1072.06,349.009 1064.55,348.123C1056.97,347.229 1051.15,344.006 1047.72,341.591L1047.72,362.785C1047.72,363.535 1047.31,364.226 1046.65,364.583C1045.99,364.94 1045.19,364.907 1044.56,364.497C1044.56,364.497 1017.61,346.312 998.419,333.778C986.743,326.151 979.704,313.146 979.704,299.2L979.704,199.071L979.781,198.778C980.774,200.618 982.08,202.539 983.793,204.37L983.793,299.2C983.793,311.766 990.135,323.483 1000.66,330.355L1043.63,359.007L1043.63,287.69C992.982,286.669 1004.22,228.608 1004.22,228.608C1004.24,228.512 1004.26,228.42 1004.29,228.33C1003.98,227.202 1004.65,226.026 1005.82,225.672C1013.56,223.33 1021.76,222.072 1030.25,222.072C1040.73,222.072 1050.78,223.993 1060.07,227.507C1061.25,227.951 1061.82,229.225 1061.37,230.354C1061.37,230.4 1061.37,230.446 1061.37,230.492L1060.48,276.388L1070.19,282.524C1070.21,282.537 1070.24,282.551 1070.26,282.565C1070.28,282.551 1070.3,282.537 1070.32,282.524L1080.03,276.388L1079.14,230.492C1079.14,230.332 1079.16,230.176 1079.19,230.027C1078.97,228.989 1079.51,227.908 1080.51,227.507C1089.29,223.993 1098.78,222.072 1108.69,222.072C1116.7,222.072 1124.45,223.33 1131.76,225.672C1132.65,225.956 1133.23,226.766 1133.27,227.657C1133.51,227.929 1133.68,228.268 1133.75,228.651C1133.75,228.651 1136.3,243.237 1132.76,257.823C1130.57,266.798 1126.09,275.741 1117.49,281.484C1112.07,285.105 1105,287.472 1095.78,287.704ZM1094.06,283.644C1094.13,283.637 1094.2,283.634 1094.27,283.634C1103.25,283.634 1110.07,281.523 1115.22,278.084C1122.91,272.946 1126.83,264.886 1128.78,256.858C1131.84,244.29 1130.09,231.723 1129.77,229.652C1123.07,227.582 1116,226.474 1108.69,226.474C1099.76,226.474 1091.18,228.127 1083.22,231.166L1082.32,277.008C1082.32,277.407 1082.12,277.776 1081.77,277.983L1071.25,284.069C1070.93,284.262 1070.54,284.233 1070.26,284.028C1069.97,284.233 1069.58,284.262 1069.26,284.069L1058.74,277.983C1058.4,277.776 1058.19,277.407 1058.19,277.008L1057.3,231.196C1048.84,228.139 1039.73,226.474 1030.25,226.474C1022.6,226.474 1015.21,227.555 1008.19,229.575C1007.57,232.959 998.948,283.615 1044.99,283.615C1045.11,283.615 1045.23,283.625 1045.34,283.645C1045.45,283.626 1045.56,283.616 1045.68,283.616C1046.81,283.616 1047.72,284.532 1047.72,285.661L1047.72,336.409C1049.55,338.026 1055.83,342.977 1065.03,344.062C1072.34,344.925 1081.46,343.307 1091.69,335.796L1091.69,285.661C1091.69,284.532 1092.6,283.616 1093.73,283.616C1093.85,283.616 1093.96,283.626 1094.06,283.644ZM1074.97,320.311C1074.7,320.389 1074.41,320.434 1074.12,320.441L1070.3,320.543L1066.48,320.441C1066.19,320.434 1065.9,320.389 1065.63,320.311L1063.25,319.632L1064.32,320.995C1065.15,322.048 1066.46,322.669 1067.86,322.669L1072.74,322.669C1074.14,322.669 1075.45,322.048 1076.28,320.995L1077.35,319.632L1074.97,320.311ZM1084.65,313.68C1084.16,314.226 1082.81,315.457 1080.72,315.457L1059.88,315.457C1057.2,315.457 1055.73,313.423 1055.73,313.423C1055.73,313.423 1056.45,314.055 1058.89,313.81C1061.33,313.566 1064.5,312.753 1066.7,313.079C1068.89,313.404 1070.3,314.15 1070.3,314.15C1070.3,314.15 1072.48,313.404 1074.68,313.079C1076.88,312.753 1080.05,313.566 1082.49,313.81C1083.8,313.942 1084.39,313.82 1084.65,313.68C1084.8,313.523 1084.87,313.423 1084.87,313.423C1084.87,313.423 1084.88,313.558 1084.65,313.68ZM1076.69,295.014C1077.16,294.403 1077.61,293.765 1078.01,293.102C1078.24,292.722 1078.51,292.367 1078.81,292.046C1079.13,291.737 1079.48,291.468 1079.87,291.243C1080.53,290.841 1081.17,290.4 1081.79,289.922C1082.59,290.536 1083.02,291.518 1082.93,292.521C1082.88,293.472 1082.47,294.368 1081.79,295.035C1081.11,295.709 1080.22,296.114 1079.27,296.176C1078.27,296.247 1077.3,295.81 1076.69,295.014ZM1065.73,295.014C1065.11,295.804 1064.13,296.233 1063.13,296.155C1061.18,296.024 1059.61,294.454 1059.47,292.5C1059.39,291.499 1059.82,290.522 1060.61,289.901C1061.22,290.384 1061.87,290.826 1062.54,291.222C1062.92,291.45 1063.28,291.719 1063.6,292.025C1063.9,292.351 1064.17,292.705 1064.4,293.081C1064.82,293.75 1065.26,294.395 1065.73,295.014ZM1035.99,241.598C1036.61,241.603 1037.23,241.642 1037.86,241.719C1038.39,241.744 1047.96,242.328 1054.91,251.722C1054.91,251.724 1054.91,251.726 1054.91,251.728C1055.11,252.008 1055.07,252.392 1054.82,252.626C1054.58,252.857 1054.2,252.873 1053.93,252.667L1053.94,252.669L1053.75,252.529C1051.78,251.084 1047.6,248.445 1042.06,247.376C1042.44,248.263 1042.66,249.244 1042.66,250.274C1042.66,254.267 1039.42,257.51 1035.42,257.51C1031.43,257.51 1028.19,254.267 1028.19,250.274C1028.19,249.544 1028.3,248.839 1028.5,248.174C1025.39,249.016 1021.34,250.499 1017.29,253.081C1017,253.268 1016.63,253.22 1016.4,252.966C1016.17,252.709 1016.17,252.323 1016.4,252.053C1018.98,249.179 1026.7,241.587 1035.88,241.597L1035.99,241.598ZM1105.12,241.598C1105.73,241.603 1106.36,241.642 1106.98,241.719C1107.51,241.744 1117.08,242.328 1124.03,251.722C1124.03,251.724 1124.04,251.726 1124.04,251.728C1124.24,252.008 1124.2,252.392 1123.95,252.626C1123.7,252.857 1123.32,252.873 1123.06,252.667L1123.06,252.669L1123.06,252.665C1121.18,251.255 1116.9,248.48 1111.18,247.376C1111.57,248.263 1111.79,249.244 1111.79,250.274C1111.79,254.267 1108.54,257.51 1104.55,257.51C1100.56,257.51 1097.32,254.267 1097.32,250.274C1097.32,249.544 1097.42,248.839 1097.62,248.174C1094.52,249.016 1090.46,250.499 1086.41,253.081C1086.13,253.268 1085.75,253.22 1085.53,252.966C1085.3,252.709 1085.29,252.323 1085.52,252.053C1088.11,249.179 1095.83,241.587 1105,241.597L1105.12,241.598ZM1108.7,247.807C1109.69,247.807 1110.49,248.405 1110.49,249.14C1110.49,249.875 1109.69,250.473 1108.7,250.473C1107.71,250.473 1106.91,249.875 1106.91,249.14C1106.91,248.405 1107.71,247.807 1108.7,247.807ZM1040.18,247.807C1041.17,247.807 1041.97,248.405 1041.97,249.14C1041.97,249.875 1041.17,250.473 1040.18,250.473C1039.19,250.473 1038.39,249.875 1038.39,249.14C1038.39,248.405 1039.19,247.807 1040.18,247.807ZM1035.58,237.017C1036.11,236.99 1043.31,236.775 1051.06,244.032C1051.06,244.035 1051.07,244.038 1051.07,244.042C1051.32,244.291 1051.34,244.69 1051.12,244.963C1050.89,245.235 1050.49,245.29 1050.2,245.092C1047.22,243.072 1041.21,239.538 1035.59,239.649C1035.56,239.65 1035.53,239.647 1035.49,239.641C1035.49,239.641 1028.32,238.382 1017.34,246.582L1017.34,246.581C1017.07,246.787 1016.68,246.76 1016.44,246.518C1016.2,246.275 1016.17,245.892 1016.38,245.619L1016.39,245.6C1018.7,242.866 1025.24,236.47 1035.58,237.017ZM1104.7,237.017C1105.24,236.99 1112.43,236.775 1120.18,244.032C1120.19,244.035 1120.19,244.038 1120.19,244.042C1120.45,244.291 1120.46,244.69 1120.24,244.963C1120.01,245.235 1119.62,245.29 1119.33,245.092C1116.35,243.072 1110.34,239.538 1104.71,239.649C1104.68,239.65 1104.65,239.647 1104.62,239.641C1104.62,239.641 1097.45,238.382 1086.46,246.582L1086.46,246.581C1086.19,246.787 1085.81,246.76 1085.57,246.518C1085.32,246.275 1085.3,245.892 1085.51,245.619L1085.52,245.6C1087.83,242.866 1094.36,236.47 1104.7,237.017ZM1032.72,157.941C1026.49,160.447 1019.99,163.644 1013.62,167.716C1012.52,166.871 1011.33,166.033 1010.07,165.207C1038.5,146.45 1070.14,144.829 1070.14,144.829L1070.57,144.836C1070.57,144.836 1086.46,145.663 1105.78,153.019C1105.85,153.04 1105.92,153.065 1105.99,153.094C1106.01,153.103 1106.03,153.112 1106.05,153.121C1113.59,156.011 1121.65,159.897 1129.48,165.116C1128.21,165.939 1127.02,166.774 1125.91,167.617C1119.36,163.382 1112.67,160.1 1106.31,157.557L1093.22,188.362C1093.06,188.738 1092.79,189.057 1092.45,189.279L1070.95,203.186L1070.91,203.211C1070.89,203.219 1070.88,203.228 1070.87,203.237L1070.82,203.262L1070.8,203.273L1070.79,203.282L1070.78,203.288C1070.48,203.445 1070.16,203.524 1069.85,203.529L1069.84,203.53L1069.82,203.53L1069.81,203.53C1069.5,203.53 1069.17,203.457 1068.88,203.304L1068.87,203.299L1068.85,203.291L1068.83,203.28L1068.79,203.255C1068.77,203.247 1068.76,203.238 1068.75,203.23L1068.71,203.206L1047.2,189.835C1046.86,189.619 1046.58,189.302 1046.41,188.926L1032.72,157.941ZM1102.49,156.099C1084.71,149.649 1070.39,148.921 1070.41,148.922L1070.27,148.918C1069.09,148.986 1054.37,149.948 1036.54,156.473L1049.9,186.696L1069.79,199.064L1089.7,186.185L1102.49,156.099Z" style="fill:white;"/>
                </g>
            </g>
        </g>
    </g>
</svg>
